<svg width="300pt" height="250pt" version="1.0" viewBox="0 0 300 250" xmlns="http://www.w3.org/2000/svg">
<metadata>Created by potrace 1.10, written by Peter Selinger 2001-2011</metadata>
<g transform="translate(0 250) scale(.1 -.1)">
<path d="m2008 2393c7-3 16-2 19 1 4 3-2 6-13 5-11 0-14-3-6-6z"/>
<path d="m2111 2397c16-12 79-45 79-42 0 7-63 45-74 45-5 0-7-1-5-3z"/>
<path d="m1968 2383c7-3 16-2 19 1 4 3-2 6-13 5-11 0-14-3-6-6z"/>
<path d="m1920 2370c-8-5-10-10-5-10 6 0 17 5 25 10s11 10 5 10c-5 0-17-5-25-10z"/>
<path d="m2255 2290c33-33 62-60 64-60 3 0-21 27-54 60s-62 60-64 60c-3 0 21-27 54-60z"/>
<path d="m1794 2304c-18-14-18-15 4-4 12 6 22 13 22 15 0 8-5 6-26-11z"/>
<path d="m1740 2269c-22-18-22-19-3-10 12 6 25 16 28 21 9 15 3 12-25-11z"/>
<path d="m1690 2235c-7-9-8-15-2-15 5 0 12 7 16 15 3 8 4 15 2 15s-9-7-16-15z"/>
<path d="m1635 2194-30-26 33 22c17 12 32 23 32 26 0 7-4 5-35-22z"/>
<path d="m2330 2206c0-2 8-10 18-17 15-13 16-12 3 4s-21 21-21 13z"/>
<path d="m1579 2153c-13-16-12-17 4-4 9 7 17 15 17 17 0 8-8 3-21-13z"/>
<path d="m2360 2166c0-2 8-10 18-17 15-13 16-12 3 4s-21 21-21 13z"/>
<path d="m1539 2123c-13-16-12-17 4-4 9 7 17 15 17 17 0 8-8 3-21-13z"/>
<path d="m2400 2110c6-11 13-20 16-20 2 0 0 9-6 20s-13 20-16 20c-2 0 0-9 6-20z"/>
<path d="m1489 2083-24-28 28 24c25 23 32 31 24 31-2 0-14-12-28-27z"/>
<path d="m2445 2030c14-27 28-50 30-50 3 0-6 23-20 50-14 28-28 50-30 50-3 0 6-22 20-50z"/>
<path d="m1425 2035c-27-22-31-23-47-8-16 14-20 14-53-11-19-15-35-36-35-46s-5-22-10-25c-6-4-8-10-5-15s1-11-5-15c-15-9-12-58 4-81 13-17 14-15 9 22-3 28 0 53 12 77 9 20 14 40 11 45-3 4 9 16 25 26l31 18 34-33c19-18 34-43 34-55s8-25 18-29c14-5 15-4 5 6-7 7-13 20-13 28s-10 25-22 38l-22 23 35 30c41 35 37 40-6 5z"/>
<path d="m2490 1950c6-11 13-20 16-20 2 0 0 9-6 20s-13 20-16 20c-2 0 0-9 6-20z"/>
<path d="m2518 1905c5-11 12-27 15-35 5-13 6-13 6 1 1 8-6 24-15 35-15 19-15 19-6-1z"/>
<path d="m1557 1893c18-2 50-2 70 0 21 2 7 4-32 4-38 0-55-2-38-4z"/>
<path d="m1460 1883c15-7 12-29-6-48-9-9-14-18-11-21 2-3 12 3 21 12 19 19 18 56-2 60-7 1-8 0-2-3z"/>
<path d="m1498 1883c7-3 16-2 19 1 4 3-2 6-13 5-11 0-14-3-6-6z"/>
<path d="m1720 1870c8-5 20-10 25-10 6 0 3 5-5 10s-19 10-25 10c-5 0-3-5 5-10z"/>
<path d="m1306 1855c4-8 11-15 16-15 6 0 5 6-2 15-7 8-14 15-16 15s-1-7 2-15z"/>
<path d="m2541 1833c-1-14 6-24 19-28 24-8 38-54 20-65-7-4-9-13-6-19 5-8 11-7 21 3 19 19 1 86-25 93-11 3-21 12-23 22-3 11-5 9-6-6z"/>
<path d="m1203 1798c-278-23-516-138-663-320-64-80-138-206-167-285-26-72-40-183-29-228 14-55 105-66 157-19 16 14 18 13 28-18 6-19 38-76 71-127 93-143 93-144 86-227-4-40-13-107-21-149-29-152-17-233 45-289 61-55 124-69 299-64 153 4 173 9 224 56 34 32 31 58-25 190-25 61-40 110-40 141-2 77 17 88 79 49 40-24 118-29 239-14l71 9 12-32c9-20 11-53 8-93-21-219-21-211 3-241 44-55 70-62 245-62h160l50 31c48 30 50 33 48 72-1 22-15 84-32 136-58 180-31 281 89 340 25 12 57 30 73 40 41 27 33 10-25-53-73-80-102-147-95-222 9-100 78-218 148-255 33-17 96-18 136-3 68 25 122 113 107 174-3 14-24 41-46 60l-40 34 29 28c16 15 67 57 113 93 174 136 246 271 265 496 17 195-56 439-179 594-44 57-46 58-114 51-8 0 11-29 42-62 64-71 125-189 158-304 19-66 23-105 23-220 0-149-10-202-53-290-35-71-82-126-170-196-195-157-219-205-132-263 46-30 53-63 19-97-24-24-79-49-108-49-38 0-109 103-131 193-16 60 5 105 94 212 74 89 87 118 62 143-30 30-84 19-197-42-87-46-109-63-128-96-34-61-44-229-17-290 4-10-1-18-16-25-31-13-58-71-58-121 0-39-2-42-34-48-41-8-198 9-226 24-24 13-24 2-4 130 19 120 10 193-29 252-28 40-59 46-129 22-69-23-168-15-239 19-49 23-56 24-81 11-67-35-76-140-23-266 4-11 0-18-13-22-28-9-52-66-52-123v-48l-127 5c-141 6-190 21-219 65-16 25-16 34 5 198 12 95 21 202 21 238 0 64-1 68-50 128-55 69-122 199-141 274-6 26-15 50-20 53-5 2-25-18-45-46-54-75-94-92-94-39s21 121 70 224c112 237 282 386 525 462 85 25 102 27 280 28 193 0 281-12 305-40 8-10 7-30-5-75-26-99-29-176-11-269 31-168 105-275 234-338 70-35 82-38 163-38 79 0 90 2 114 25 15 14 35 41 45 60 23 47 63 170 57 176-3 3-21-28-41-69-19-40-54-93-77-117-40-41-43-42-94-38-109 9-229 97-285 209-64 126-62 290 5 424 19 39 35 77 35 85 1 8 7 32 14 53 8 20 11 37 8 37s-24-16-47-35c-41-33-44-34-73-20-49 25-218 49-228 33-6-9-60-2-79 11-5 4-56 3-112-1zm407-74c22-9 47-14 55-10 22 8 19-8-14-78-80-169-65-345 45-516 13-20 10-18-11 5-80 89-124 288-94 425 27 122 21 162-24 180-12 5-16 9-10 9 7 1 31-6 53-15zm-987-216c-77-80-141-171-179-251-13-29-24-46-24-39 0 44 134 246 207 311 31 28 59 51 62 51 2 0-27-33-66-72zm-73-537c0-11-4-11-18 2-16 15-20 15-47-3-45-30-45-24-1 24l41 45 12-27c7-15 12-33 13-41zm33-71c3-11 1-18-4-14-5 3-9 12-9 20 0 20 7 17 13-6zm2117-132c-30-58-97-130-182-198-140-110-156-133-120-173 12-15 13-19 3-15-8 2-19 11-24 20-20 31 3 67 81 130 103 83 215 197 231 236 8 18 16 31 18 28 3-2-1-15-7-28zm-1990-66c0-9-7-6-20 11-11 14-20 29-20 33s9-1 20-11 20-25 20-33zm1580 18c0-10-13-34-28-52-16-18-50-59-75-91-26-32-47-53-47-48 0 6 21 36 48 68 81 100 76 90 58 118-16 25-16 25 14 25 23 0 30-4 30-20zm-252-108c-13-16-25-25-27-20-4 11 28 48 41 48 5 0-1-13-14-28zm-869-66c-13-14-26-22-29-19-5 4 37 43 47 43 3 0-5-11-18-24zm405-12c9-8 16-20 16-25 0-6-7-3-16 5-8 9-24 16-35 16s-17 5-14 10c9 15 31 12 49-6zm438-199c3-13 1-22-3-19-9 5-13 44-5 44 2 0 6-11 8-25zm178-79c0-6-7-1-15 10-8 10-15 23-15 28 0 6 7 1 15-10 8-10 15-23 15-28zm-986-26c15-33 25-64 21-69-5-9-45-24-97-35-27-6-28-5-28 38 0 71 29 126 66 126 6 0 23-27 38-60zm830 1c14-32 26-61 26-65 0-12-47-34-89-41l-44-7 6 63c5 52 10 68 32 86 14 13 30 23 34 23 5 0 20-26 35-59zm410 27c-11-20-47-58-54-58s51 68 58 69c2 1 0-5-4-11z"/>
<path d="m2502 1798c-15-15-16-28-2-28 6 0 10 6 10 14s6 17 13 19c6 3 7 6 2 6-6 1-16-4-23-11z"/>
<path d="m2305 1770c-13-14-22-17-29-10-13 13-46 13-46 0 0-5 9-11 20-11 11-1 23-2 28-3 11-2 56 33 51 39-3 3-14-4-24-15z"/>
<path d="m2345 1780c-3-5-1-10 4-10 6 0 11 5 11 10 0 6-2 10-4 10-3 0-8-4-11-10z"/>
<path d="m2434 1775c-9-21-2-26 13-10 8 9 9 16 3 20-6 3-13-1-16-10z"/>
<path d="m2186 1765c-3-9-18-15-33-16-90 0-87 0-69-17 13-14 18-14 25-4 5 8 17 11 32 7 23-6 69 20 69 39 0 12-18 6-24-9z"/>
<path d="m2370 1770c0-5 9-10 20-10s20 5 20 10c0 6-9 10-20 10s-20-4-20-10z"/>
<path d="m2035 1720c-10-11-13-20-8-20 13 0 38 29 31 35-3 3-13-4-23-15z"/>
<path d="m1866 1705c-10-15-26-25-41-25-13 0-27-5-31-11-4-7 1-9 15-5 11 3 29 8 40 11 10 3 22 15 28 27l9 22 22-22c24-24 28-21 12 9-14 26-34 24-54-6z"/>
<path d="m1987 1694c6-15 23-19 23-5 0 5-7 11-14 14-10 4-13 1-9-9z"/>
<path d="m2430 1675c-7-9-19-14-27-11-19 8-43-4-43-21 0-11-13-13-62-10-57 4-63 2-87-24-19-21-32-27-49-23-12 4-20 9-18 13 2 3-15 6-39 6s-41-3-39-7c6-9-28-40-61-58-22-12-27-11-39 5s-16 17-29 6c-9-7-27-11-41-9-15 2-34-6-48-18-13-12-30-22-38-22-103-8-95-10-98 29-3 30 2 39 24 54 26 17 28 17 40 1 16-23 27-4 15 26-7 16-10 18-10 6-1-12-6-15-17-11-9 3-19 2-23-3-3-5-15-14-26-20-28-15-30-69-3-96 15-15 22-17 34-7 10 8 14 8 14 0 0-9 5-9 21-1 11 7 23 9 26 6 4-3 21 6 40 20 22 17 40 23 54 19 11-4 27-1 36 7 13 10 17 10 20 1 3-7 11-13 19-13 21 0 105 46 98 53-12 12 45 18 64 8 33-18 59-13 80 14 18 23 25 25 81 21 53-3 63-1 72 16 6 11 16 17 24 15 7-3 22 1 34 9s25 13 29 10c4-2 14-1 22 5 9 5 10 9 3 9-6 0-18 2-26 5-7 3-20-1-27-10z"/>
<path d="m1712 1620c0-14 2-19 5-12 2 6 2 18 0 25-3 6-5 1-5-13z"/>
<path d="m1910 1584c0-12 3-14 13-6 9 8 26 8 57 1 37-8 46-7 59 8 15 15 15 16 0 5-11-8-25-9-50-2-51 15-79 13-79-6z"/>
<path d="m1820 1570c-13-8-12-10 3-10 9 0 17 5 17 10 0 12-1 12-20 0z"/>
<path d="m1878 1563c7-3 16-2 19 1 4 3-2 6-13 5-11 0-14-3-6-6z"/>
<path d="m2447 1222c-22-24-21-45 1-65 24-22 55-21 75 1 22 24 21 45-1 65-24 22-55 21-75-1zm53-37c0-8-7-15-15-15s-15 7-15 15 7 15 15 15 15-7 15-15z"/>
<path d="m2436 929c-72-85-25-165 102-176 46-4 61-2 81 14 22 18 22 21 10 45-26 48-125 148-147 148-11 0-32-14-46-31zm164-136c1-32-132-5-155 31-18 27-7 71 22 94 15 10 25 4 75-50 31-35 57-69 58-75z"/>
</g>
</svg>
